# xmcd
#
# Track frame offsets:
#	150
#	11948
#	26173
#	39003
#	51155
#	65278
#	79432
#	95159
#	133883
#	151601
#	168999
#	186546
#	213110
#	237578
#	261738
#
# Disc length: 3722 seconds
#
# Revision: 1
# Processed by: cddbd v1.5.1PL0 Copyright (c) Steve Scherf et al.
# Submitted via: audiograbber 1.83.01
#
DISCID=d90e880f
DTITLE=Various Artist - Simply the Blues - Disc 1
DYEAR=2002
DGENRE=Blues
TTITLE0=Robert Johnson - Hellhound on my trail
TTITLE1=Billie Holliday - Billie's Blues (I love my man)
TTITLE2=T-Bone Walker - Blue mood
TTITLE3=Muddy Waters - Trouble no more
TTITLE4=Howlin' Wolf - Smokestack lightnin'
TTITLE5=Paul Butterfield Blues Band - Born in Chicago
TTITLE6=Taj Mahal - She caught the Katy and left me the mule
TTITLE7=B. B. King - Why I sing the blues
TTITLE8=Janis Joplin - Try (just a little bit harder)
TTITLE9=Eric Clapton - Mean old world
TTITLE10=Hound Dog Taylor - It hurts me too
TTITLE11=Mike Bloomfield - Bad Luck Baby
TTITLE12=Albert Collins - When the welfare turns its back on you
TTITLE13=Stevie Ray Vaughan - Texas flood
TTITLE14=Koko Taylor - Queen Bee
EXTD=
EXTT0=
EXTT1=
EXTT2=
EXTT3=
EXTT4=
EXTT5=
EXTT6=
EXTT7=
EXTT8=
EXTT9=
EXTT10=
EXTT11=
EXTT12=
EXTT13=
EXTT14=
PLAYORDER=
